# xmcd CD database file
#
# Track frame offsets:
#	150
#	14627
#	34877
#	48442
#	64622
#	94562
#
# Disc length: 1306 seconds
#
# Revision: 4
# Processed by: cddbd v1.5.2PL0 Copyright (c) Steve Scherf et al.
# Submitted via: CDex 1.70beta2
#
DISCID=47051806
DTITLE=John Denver - A Song's Best Friend: The Very Best Of [Disc 2 of 2]
DYEAR=2004
DGENRE=Country
TTITLE0=Leaving, On A Jet Plane (Babe, I Hate To Go)
TTITLE1=The Weight
TTITLE2=Annie's Song [Acoustic Mix]
TTITLE3=Calypso
TTITLE4=Amsterdam [Live at London Palladium]
TTITLE5=Data: ??
EXTD=CDDBSort:denver_john,songs_best_friend_the_very_best_of_disc_2_of_2 - YEAR: 2004
EXTT0=Previously unreleased on CD
EXTT1=Previously unreleased
EXTT2=Previously unreleased
EXTT3=Previously unreleased
EXTT4=
EXTT5=
PLAYORDER=
